<svg id="Layer_1" data-name="Layer 1" xmlns="http://www.w3.org/2000/svg" viewBox="0 0 464.96 104.62"
  style="filter: drop-shadow( 0px 0px 1px rgba(255, 255, 255, .9));">
  <defs>
    <style>.cls-1{fill:#ea7f0a;}.cls-2{fill:#404040;}</style>
  </defs>
  <path class="cls-1"
    d="M14.24,18.16v48.6H9.33v-53a9.67,9.67,0,0,0-2-6.48C6,5.69,3.7,4.91.49,4.91H0V2H6.87a24,24,0,0,1,9,1.43A14,14,0,0,1,21.7,7.85L55.47,47.12V2h4.91V67.05H55.86Z" />
  <path class="cls-1"
    d="M76.68,64.6A21.29,21.29,0,0,1,68.77,56,26.64,26.64,0,0,1,66,43.69a28.15,28.15,0,0,1,2.8-13.06,19.56,19.56,0,0,1,7.71-8.2,22,22,0,0,1,11.09-2.79,24.2,24.2,0,0,1,11,2.45A19.11,19.11,0,0,1,106.32,29a18.67,18.67,0,0,1,2.85,10.26c0,1.24-.06,2.65-.19,4.22l-.2,2H79.23c0,6.21,1,10.75,2.85,13.59a9,9,0,0,0,8,4.27,14,14,0,0,0,7.9-2.11,25.26,25.26,0,0,0,6.14-6l3,2.26A25.92,25.92,0,0,1,100,64.8q-4.26,2.94-11.44,2.94A22.13,22.13,0,0,1,76.68,64.6ZM95.92,41q0-9.22-2.16-13.11a6.77,6.77,0,0,0-6.19-3.88q-3.73,0-6,4T79.23,41Z" />
  <path class="cls-1"
    d="M114.77,31.91a29.05,29.05,0,0,0-4.42-7.76,7,7,0,0,0-4.71-2.45V19.83l4.71-.19q6.48,0,10.55,2.65t7.32,9.62l8.34,18.75L143.14,35l-1.37-3a31.54,31.54,0,0,0-4.42-7.66,6.58,6.58,0,0,0-4.22-2.55V19.83l3.73-.19a21.56,21.56,0,0,1,11.19,2.69q4.51,2.72,7.66,9.58l9,19.73,12-31h5.2L163.86,67.74h-4.52L146.58,40.15,135.19,67.74h-4.42Z" />
  <path class="cls-2"
    d="M199.35,64.31a29.27,29.27,0,0,1-10.66-12A38,38,0,0,1,185,35.34,39.16,39.16,0,0,1,189,17.57,32.72,32.72,0,0,1,200.13,4.71,26.86,26.86,0,0,1,215.4,0a39.54,39.54,0,0,1,13.79,2.21q5.94,2.21,8.79,5.64A10.39,10.39,0,0,1,240,13.3a85.67,85.67,0,0,1,.39,9.28h-2q-1.86-9.52-6.87-14.09T218.34,3.93q-10.6,0-17.08,7.46t-6.48,24a40.8,40.8,0,0,0,2.5,14.44,24.33,24.33,0,0,0,7.81,10.84q5.29,4.18,13.25,4.18a22.67,22.67,0,0,0,12.52-3.44,31.47,31.47,0,0,0,9.57-10.31l2,1.47Q237.87,61.37,231.25,65a32.1,32.1,0,0,1-15.85,3.68A29.2,29.2,0,0,1,199.35,64.31Z" />
  <path class="cls-2"
    d="M253.88,64.55a20.33,20.33,0,0,1-7.46-8.69,28.55,28.55,0,0,1-2.55-12.17,28.63,28.63,0,0,1,2.55-12.18,20.31,20.31,0,0,1,7.46-8.68,22.63,22.63,0,0,1,23.17,0,20.31,20.31,0,0,1,7.46,8.68,28.63,28.63,0,0,1,2.56,12.18,28.55,28.55,0,0,1-2.56,12.17,20.33,20.33,0,0,1-7.46,8.69,22.63,22.63,0,0,1-23.17,0Zm18-3.39a17.23,17.23,0,0,0,4.32-7.26,32.61,32.61,0,0,0,1.52-10.21,32.61,32.61,0,0,0-1.52-10.21,17.33,17.33,0,0,0-4.32-7.27,9.13,9.13,0,0,0-12.86,0,17.13,17.13,0,0,0-4.32,7.27,32.32,32.32,0,0,0-1.52,10.21,32.32,32.32,0,0,0,1.52,10.21A17,17,0,0,0,259,61.16a9.13,9.13,0,0,0,12.86,0Z" />
  <path class="cls-2"
    d="M293.54,32.4c0-3.34-.45-5.81-1.37-7.41s-2.75-2.41-5.5-2.41h-2v-2h8.83a12.51,12.51,0,0,1,5.55,1,6,6,0,0,1,2.8,2.94h.49a17.21,17.21,0,0,1,5.35-3.48,18.48,18.48,0,0,1,7.41-1.42,15.15,15.15,0,0,1,7.07,1.52,10.73,10.73,0,0,1,4.71,5.35,17.39,17.39,0,0,1,6.53-5.06,19.56,19.56,0,0,1,8.2-1.81,13.2,13.2,0,0,1,10,3.92q3.72,3.93,3.73,13.75V66.76h-8.84V37.31q0-7.08-2-10.16a6.51,6.51,0,0,0-5.89-3.1,10.62,10.62,0,0,0-5.8,2,14.75,14.75,0,0,0-4.51,4.36,29.06,29.06,0,0,1,.49,6.88V66.76h-8.84V37.31q0-7.08-2-10.16a6.5,6.5,0,0,0-5.89-3.1q-5.2,0-9.82,5.21v37.5h-8.84Z" />
  <path class="cls-2"
    d="M376.5,66.17a13.8,13.8,0,0,1-5-3.83H371l-3.43,4.42h-4.91v-53q0-5-1.37-7.42t-5.5-2.4h-2V2h8.84a12.37,12.37,0,0,1,5.45.94,5.41,5.41,0,0,1,2.6,3.38,26.44,26.44,0,0,1,.79,7.47v8.83a34.47,34.47,0,0,1,5.69-2.16,25,25,0,0,1,6.58-.78q9.12,0,13.89,6.77t4.76,17.28q0,10.41-4.61,17.23a14.86,14.86,0,0,1-13.06,6.82A18.88,18.88,0,0,1,376.5,66.17Zm13.75-7.9q2.83-5.55,2.84-14.58t-3-14.63a9.89,9.89,0,0,0-9.28-5.5,12.42,12.42,0,0,0-4.22.79q-2.16.78-5.1,2.16V57.92a15,15,0,0,0,4.17,4.27,10.75,10.75,0,0,0,6.13,1.62Q387.4,63.81,390.25,58.27Z" />
  <path class="cls-2"
    d="M409,32.4q0-5-1.38-7.41t-5.49-2.41h-2v-2H409a12.39,12.39,0,0,1,5.45.93,5.44,5.44,0,0,1,2.6,3.39,26.39,26.39,0,0,1,.78,7.46V66.76H409Z" />
  <path class="cls-1"
    d="M408.85,12.86a6.5,6.5,0,0,1-1.62-4.42,4.29,4.29,0,0,1,1.23-3.24A4.57,4.57,0,0,1,411.75,4a5,5,0,0,1,3.87,1.86,6.48,6.48,0,0,1,1.63,4.42A4.29,4.29,0,0,1,416,13.55a4.59,4.59,0,0,1-3.29,1.18A5,5,0,0,1,408.85,12.86Z" />
  <path class="cls-2"
    d="M426.67,32.4q0-5-1.38-7.41t-5.49-2.41h-2v-2h8.84a12.56,12.56,0,0,1,5.55,1A6,6,0,0,1,435,24.54h.49a17.14,17.14,0,0,1,5.36-3.48,18.44,18.44,0,0,1,7.41-1.42q7.37,0,12,3.92T465,37.31V66.76h-8.84V37.31q0-6.87-3.09-10.07a10.32,10.32,0,0,0-7.71-3.19q-5.2,0-9.82,5.21v37.5h-8.83Z" />
  <path class="cls-2"
    d="M15.65,101H14.12V96.27l-4.33-8h1.78l1,1.87c.65,1.26,1.17,2.28,1.56,3.08s.62,1.27.68,1.43l.1.23c.11-.31.91-1.9,2.4-4.74l1-1.87H20l-4.37,8Z" />
  <path class="cls-2"
    d="M31.34,96.23a5.21,5.21,0,0,1-1.21,3.54,4.15,4.15,0,0,1-3.32,1.4,4.1,4.1,0,0,1-3.26-1.39,5.19,5.19,0,0,1-1.2-3.51,5.26,5.26,0,0,1,1.23-3.56,4.08,4.08,0,0,1,3.23-1.43,4.16,4.16,0,0,1,3.35,1.4A5.28,5.28,0,0,1,31.34,96.23Zm-7.44,0a4.07,4.07,0,0,0,.79,2.54,2.52,2.52,0,0,0,2.12,1,2.6,2.6,0,0,0,2.21-1,4.18,4.18,0,0,0,.77-2.56,4.41,4.41,0,0,0-.73-2.62,2.62,2.62,0,0,0-2.25-1,2.52,2.52,0,0,0-2.14,1.06A4.25,4.25,0,0,0,23.9,96.25Z" />
  <path class="cls-2"
    d="M42,101H40.51V99.33a2.94,2.94,0,0,1-3,1.78,3,3,0,0,1-2.24-.84A3.13,3.13,0,0,1,34.44,98v-6.6h1.5v6.22a2.22,2.22,0,0,0,.52,1.59,2,2,0,0,0,1.44.55,2.36,2.36,0,0,0,1.9-.84,3.34,3.34,0,0,0,.71-2.24V91.41H42Z" />
  <path class="cls-2"
    d="M47.26,101h-1.5l0-9.59h1.48v1.68a2.64,2.64,0,0,1,2.61-1.77,2.37,2.37,0,0,1,.52,0v1.47a2.45,2.45,0,0,0-.81-.13,2,2,0,0,0-1.66.92,3.6,3.6,0,0,0-.66,2.14Z" />
  <path class="cls-2"
    d="M63,101H58.33V88.26h3.84a5.08,5.08,0,0,1,3.15.9A3,3,0,0,1,66.5,91.6a3.05,3.05,0,0,1-.62,1.9,2.58,2.58,0,0,1-1.57,1,3.07,3.07,0,0,1,1.8,1,2.94,2.94,0,0,1,.75,2.12,3.22,3.22,0,0,1-1,2.47A4.1,4.1,0,0,1,63,101Zm-.81-11.44H59.86v4.35h2a3.35,3.35,0,0,0,2.26-.65,2.06,2.06,0,0,0,.74-1.66,1.81,1.81,0,0,0-.69-1.46A3.09,3.09,0,0,0,62.17,89.56Zm.3,5.65H59.86v4.48h2.9a2.81,2.81,0,0,0,1.86-.56,2.33,2.33,0,0,0-.08-3.31A3.1,3.1,0,0,0,62.47,95.21Z" />
  <path class="cls-2"
    d="M77.52,101H76V99.33a3,3,0,0,1-3,1.78,3,3,0,0,1-2.24-.84A3.09,3.09,0,0,1,70,98v-6.6h1.49v6.22A2.23,2.23,0,0,0,72,99.22a1.92,1.92,0,0,0,1.44.55,2.38,2.38,0,0,0,1.9-.84A3.34,3.34,0,0,0,76,96.69V91.41h1.49Z" />
  <path class="cls-2"
    d="M87.06,98.44a2.39,2.39,0,0,1-.86,2,3.53,3.53,0,0,1-2.35.72,5.9,5.9,0,0,1-2.82-.59V99.07a5.3,5.3,0,0,0,2.73.75,2.14,2.14,0,0,0,1.32-.34,1.08,1.08,0,0,0,.45-.92A1.23,1.23,0,0,0,85,97.5a7.57,7.57,0,0,0-1.67-.85,5.23,5.23,0,0,1-1.73-1A2.21,2.21,0,0,1,81,93.93a2.28,2.28,0,0,1,.9-1.9,3.44,3.44,0,0,1,2.24-.71,6,6,0,0,1,2.4.41v1.42a4.63,4.63,0,0,0-2.39-.53,1.92,1.92,0,0,0-1.2.35,1.11,1.11,0,0,0-.44.9,1.22,1.22,0,0,0,.13.59,1.49,1.49,0,0,0,.52.51l.57.33.78.35a6.16,6.16,0,0,1,1.89,1.11A2.16,2.16,0,0,1,87.06,98.44Z" />
  <path class="cls-2"
    d="M91.62,87.71a1,1,0,0,1,0,1.39,1,1,0,0,1-.7.27.93.93,0,0,1-.69-.27,1,1,0,0,1,0-1.39.91.91,0,0,1,.69-.29A1,1,0,0,1,91.62,87.71ZM91.68,101h-1.5V91.41h1.5Z" />
  <path class="cls-2"
    d="M103.09,101H101.6V94.79a2.22,2.22,0,0,0-.54-1.61,1.88,1.88,0,0,0-1.41-.56,2.48,2.48,0,0,0-1.86.83A3.26,3.26,0,0,0,97,95.76V101H95.53V91.41H97v1.67a3,3,0,0,1,3-1.8,3,3,0,0,1,2.23.85,3.12,3.12,0,0,1,.83,2.27Z" />
  <path class="cls-2"
    d="M113.75,100.5a5.79,5.79,0,0,1-2.72.59,4.74,4.74,0,0,1-3.51-1.33,4.81,4.81,0,0,1-1.33-3.53,5.22,5.22,0,0,1,1.19-3.61,4,4,0,0,1,3.06-1.32,3.69,3.69,0,0,1,2.86,1.15,4.69,4.69,0,0,1,1.06,3.27,5.62,5.62,0,0,1-.1,1.12h-6.54A3.2,3.2,0,0,0,108.8,99a3.61,3.61,0,0,0,2.38.76,4.39,4.39,0,0,0,2.57-.67Zm-3.31-7.9a2.46,2.46,0,0,0-1.83.78,3.53,3.53,0,0,0-.89,2.21h5.14v-.38a2.72,2.72,0,0,0-.64-1.9A2.29,2.29,0,0,0,110.44,92.6Z" />
  <path class="cls-2"
    d="M123.41,98.44a2.42,2.42,0,0,1-.86,2,3.55,3.55,0,0,1-2.35.72,5.9,5.9,0,0,1-2.82-.59V99.07a5.26,5.26,0,0,0,2.72.75,2.2,2.2,0,0,0,1.33-.34,1.08,1.08,0,0,0,.45-.92,1.25,1.25,0,0,0-.5-1.06,7.81,7.81,0,0,0-1.67-.85,5.23,5.23,0,0,1-1.73-1,2.21,2.21,0,0,1-.66-1.68,2.28,2.28,0,0,1,.9-1.9,3.47,3.47,0,0,1,2.24-.71,5.92,5.92,0,0,1,2.4.41v1.42a4.59,4.59,0,0,0-2.38-.53,1.92,1.92,0,0,0-1.2.35,1.09,1.09,0,0,0-.44.9,1.22,1.22,0,0,0,.13.59,1.49,1.49,0,0,0,.52.51l.57.33.78.35a6.16,6.16,0,0,1,1.89,1.11A2.19,2.19,0,0,1,123.41,98.44Z" />
  <path class="cls-2"
    d="M132.22,98.44a2.42,2.42,0,0,1-.86,2,3.55,3.55,0,0,1-2.35.72,5.9,5.9,0,0,1-2.82-.59V99.07a5.23,5.23,0,0,0,2.72.75,2.14,2.14,0,0,0,1.32-.34,1.06,1.06,0,0,0,.46-.92,1.25,1.25,0,0,0-.5-1.06,7.94,7.94,0,0,0-1.68-.85,5.45,5.45,0,0,1-1.73-1,2.24,2.24,0,0,1-.65-1.68A2.28,2.28,0,0,1,127,92a3.47,3.47,0,0,1,2.24-.71,5.92,5.92,0,0,1,2.4.41v1.42a4.59,4.59,0,0,0-2.38-.53,1.88,1.88,0,0,0-1.2.35,1.09,1.09,0,0,0-.45.9,1.22,1.22,0,0,0,.14.59,1.4,1.4,0,0,0,.52.51c.25.16.44.27.56.33l.79.35a6.41,6.41,0,0,1,1.89,1.11A2.19,2.19,0,0,1,132.22,98.44Z" />
  <path class="cls-2"
    d="M136.24,99.24a1.06,1.06,0,0,1,.33.79,1.12,1.12,0,1,1-2.24,0,1.11,1.11,0,0,1,1.12-1.11A1,1,0,0,1,136.24,99.24Z" />
  <path class="cls-2"
    d="M155.67,94.57a7.07,7.07,0,0,1-1.54,4.79,5.72,5.72,0,0,1-8.32,0,8.12,8.12,0,0,1,0-9.56,5.82,5.82,0,0,1,8.37,0A7.06,7.06,0,0,1,155.67,94.57Zm-9.82,0A5.75,5.75,0,0,0,147,98.31a3.67,3.67,0,0,0,3,1.38,3.6,3.6,0,0,0,3-1.36,6,6,0,0,0,1.07-3.76A5.88,5.88,0,0,0,153,90.81a4,4,0,0,0-6,0A5.89,5.89,0,0,0,145.85,94.57Z" />
  <path class="cls-2"
    d="M166.41,101h-1.49V99.33a3,3,0,0,1-3,1.78,3,3,0,0,1-2.24-.84,3.09,3.09,0,0,1-.82-2.26v-6.6h1.49v6.22a2.23,2.23,0,0,0,.53,1.59,1.94,1.94,0,0,0,1.44.55,2.36,2.36,0,0,0,1.9-.84,3.34,3.34,0,0,0,.71-2.24V91.41h1.49Z" />
  <path class="cls-2"
    d="M171.67,101h-1.5l0-9.59h1.48v1.68a2.64,2.64,0,0,1,2.6-1.77,2.42,2.42,0,0,1,.53,0v1.47a2.45,2.45,0,0,0-.81-.13,2,2,0,0,0-1.66.92,3.6,3.6,0,0,0-.66,2.14Z" />
  <path class="cls-2" d="M190,89.6H186.6V101h-1.53V89.6h-3.44V88.26H190Z" />
  <path class="cls-2"
    d="M199.79,100.5a5.79,5.79,0,0,1-2.72.59,4.57,4.57,0,0,1-4.84-4.86,5.22,5.22,0,0,1,1.19-3.61,3.94,3.94,0,0,1,3.06-1.32,3.69,3.69,0,0,1,2.86,1.15,4.69,4.69,0,0,1,1.06,3.27,6.48,6.48,0,0,1-.1,1.12h-6.54A3.16,3.16,0,0,0,194.84,99a3.61,3.61,0,0,0,2.38.76,4.39,4.39,0,0,0,2.57-.67Zm-3.31-7.9a2.44,2.44,0,0,0-1.83.78,3.53,3.53,0,0,0-.89,2.21h5.14v-.38a2.72,2.72,0,0,0-.64-1.9A2.29,2.29,0,0,0,196.48,92.6Z" />
  <path class="cls-2"
    d="M210.28,100.66a4.28,4.28,0,0,1-2.23.54,4.67,4.67,0,0,1-3.6-1.44,5.32,5.32,0,0,1,0-7,4.64,4.64,0,0,1,3.64-1.48,4.49,4.49,0,0,1,2.19.53v1.42a3.57,3.57,0,0,0-2-.59,3.38,3.38,0,0,0-2.6,1.05,3.68,3.68,0,0,0-1,2.6,3.77,3.77,0,0,0,.94,2.58,3.34,3.34,0,0,0,2.63,1,3.68,3.68,0,0,0,2-.62Z" />
  <path class="cls-2"
    d="M221.17,101h-1.5V94.79a2.23,2.23,0,0,0-.53-1.6,1.85,1.85,0,0,0-1.41-.57,2.49,2.49,0,0,0-1.85.81,3.21,3.21,0,0,0-.8,2.33V101h-1.47V87.63h1.47v5.45a3.07,3.07,0,0,1,3-1.8,3,3,0,0,1,2.22.85,3.15,3.15,0,0,1,.84,2.31Z" />
  <path class="cls-2"
    d="M232.4,101h-1.5V94.79a2.22,2.22,0,0,0-.54-1.61,1.88,1.88,0,0,0-1.4-.56,2.51,2.51,0,0,0-1.87.83,3.26,3.26,0,0,0-.78,2.31V101h-1.48V91.41h1.48v1.67a3.06,3.06,0,0,1,3-1.8,3,3,0,0,1,2.23.85,3.09,3.09,0,0,1,.84,2.27Z" />
  <path class="cls-2"
    d="M244.49,96.23a5.21,5.21,0,0,1-1.21,3.54,4.59,4.59,0,0,1-6.59,0,5.77,5.77,0,0,1,0-7.07A4.08,4.08,0,0,1,240,91.28a4.16,4.16,0,0,1,3.35,1.4A5.28,5.28,0,0,1,244.49,96.23Zm-7.45,0a4.08,4.08,0,0,0,.8,2.54,2.52,2.52,0,0,0,2.12,1,2.6,2.6,0,0,0,2.21-1,4.18,4.18,0,0,0,.77-2.56,4.34,4.34,0,0,0-.74-2.62,2.59,2.59,0,0,0-2.24-1,2.52,2.52,0,0,0-2.14,1.06A4.26,4.26,0,0,0,237,96.25Z" />
  <path class="cls-2" d="M249.27,101h-1.49V87.63h1.49Z" />
  <path class="cls-2"
    d="M261.56,96.23a5.21,5.21,0,0,1-1.21,3.54,4.18,4.18,0,0,1-3.33,1.4,4.11,4.11,0,0,1-3.26-1.39,5.19,5.19,0,0,1-1.2-3.51,5.27,5.27,0,0,1,1.24-3.56A4.08,4.08,0,0,1,257,91.28a4.17,4.17,0,0,1,3.36,1.4A5.28,5.28,0,0,1,261.56,96.23Zm-7.45,0a4.08,4.08,0,0,0,.8,2.54,2.51,2.51,0,0,0,2.11,1,2.61,2.61,0,0,0,2.22-1,4.18,4.18,0,0,0,.77-2.56,4.34,4.34,0,0,0-.74-2.62,2.59,2.59,0,0,0-2.25-1,2.51,2.51,0,0,0-2.13,1.06A4.26,4.26,0,0,0,254.11,96.25Z" />
  <path class="cls-2"
    d="M272.5,100.22a4.25,4.25,0,0,1-1.21,3.3,4.4,4.4,0,0,1-3.11,1.1,6.87,6.87,0,0,1-3-.58v-1.5a5.5,5.5,0,0,0,2.83.7,3.09,3.09,0,0,0,2.18-.73,3,3,0,0,0,.79-2.31V99.12a3.06,3.06,0,0,1-2.82,1.63,3.73,3.73,0,0,1-2.8-1.21,4.65,4.65,0,0,1-1.16-3.37,5.52,5.52,0,0,1,1.07-3.51,3.41,3.41,0,0,1,2.82-1.38A3.06,3.06,0,0,1,271,93V91.41h1.49Zm-6.73-4.08a3.41,3.41,0,0,0,.8,2.44,2.4,2.4,0,0,0,1.79.85,2.54,2.54,0,0,0,1.85-.81,3.25,3.25,0,0,0,.8-2.39,4.09,4.09,0,0,0-.77-2.72,2.35,2.35,0,0,0-1.8-.89,2.32,2.32,0,0,0-1.95,1A4.19,4.19,0,0,0,265.77,96.14Z" />
  <path class="cls-2"
    d="M280.33,100.75a6.23,6.23,0,0,1-1.75,2.74,3.63,3.63,0,0,1-2.31.79,2.89,2.89,0,0,1-.8-.09v-1.34a2.51,2.51,0,0,0,.64.07,2.8,2.8,0,0,0,2.71-2.17l-3.88-9.34h1.68l1.25,3.16,1.68,4.35c.1-.33.61-1.78,1.52-4.35l1.11-3.16h1.61Z" />
  <path class="cls-2"
    d="M287.49,99.24a1,1,0,0,1,.32.79,1.07,1.07,0,0,1-.32.8,1.09,1.09,0,0,1-.79.32,1.11,1.11,0,0,1-1.12-1.12,1.06,1.06,0,0,1,.33-.79,1,1,0,0,1,.79-.32A1,1,0,0,1,287.49,99.24Z" />
</svg>